<?xml version="1.0" encoding="UTF-8"?>
<svg width="15px" height="12px" viewBox="0 0 15 12" version="1.1" xmlns="http://www.w3.org/2000/svg" xmlns:xlink="http://www.w3.org/1999/xlink">
    <!-- Generator: Sketch 43.2 (39069) - http://www.bohemiancoding.com/sketch -->
    <title>icon-freinds</title>
    <desc>Created with Sketch.</desc>
    <defs></defs>
    <g id="Symbols" stroke="none" stroke-width="1" fill="none" fill-rule="evenodd">
        <g id="design/button-private" transform="translate(-17.000000, -14.000000)" fill-rule="nonzero">
            <g id="button/share">
                <g id="icon-freinds" transform="translate(17.000000, 14.000000)">
                    <path d="M9.3372973,5.5967027 C10.0804865,5.04972973 10.5630811,4.14616216 10.5630811,3.15259459 C10.5630811,1.49286486 9.21762162,0.13572973 7.55789189,0.13572973 C5.89816216,0.13572973 4.5527027,1.47551351 4.5527027,3.13524324 C4.5527027,4.12881081 5.0352973,5.05264865 5.77848649,5.59962162 C4.07821622,6.28913514 2.88097297,8.02864865 2.88097297,9.97459459 C2.88097297,12.5691892 12.234973,12.5691892 12.234973,9.97459459 C12.2348108,8.02881081 11.0374054,6.28621622 9.3372973,5.5967027 Z" id="Shape" fill="#F6F6F6"></path>
                    <path d="M12.785027,5.67178378 C13.3315135,5.26978378 13.6861622,4.61481081 13.6861622,3.88427027 C13.6861622,2.664 12.696973,1.67108108 11.4767027,1.67108108 C11.2026486,1.67108108 10.9404324,1.72135135 10.6983243,1.81232432 C10.8715135,2.2212973 10.9675135,2.67064865 10.9675135,3.14221622 C10.9675135,4.01205405 10.6349189,4.84621622 10.056,5.4732973 C11.6434054,6.36081081 12.6394054,8.05005405 12.6394054,9.93340541 C12.6394054,10.0076757 12.6334054,10.0861622 12.6197838,10.1672432 C13.8838378,10.0083243 14.9155135,9.57648649 14.9155135,8.87156757 C14.9155135,7.35486486 14.0351351,6.17886486 12.785027,5.67178378 Z" id="Shape" fill="#F6F6F6"></path>
                    <path d="M2.47621622,9.93340541 C2.47621622,8.08459459 3.43735135,6.42324324 4.97562162,5.52372973 C4.99913514,5.50216216 5.022,5.47978378 5.04454054,5.45740541 C4.47502703,4.83097297 4.14794595,4.00054054 4.14794595,3.13281081 C4.14794595,2.68524324 4.23567568,2.25794595 4.39345946,1.866 C4.11697297,1.74113514 3.81064865,1.67108108 3.48778378,1.67108108 C2.26751351,1.67108108 1.27832432,2.65848649 1.27832432,3.87875676 C1.27832432,4.60945946 1.63313514,5.27075676 2.17945946,5.67275676 C0.929513514,6.17983784 0.0491351351,7.35486486 0.0491351351,8.87156757 C0.0491351351,9.60486486 1.16562162,10.0427027 2.49875676,10.1850811 C2.48302703,10.0976757 2.47621622,10.0133514 2.47621622,9.93340541 Z" id="Shape" fill="#FFFFFF"></path>
                </g>
            </g>
        </g>
    </g>
</svg>