<?xml version="1.0" encoding="UTF-8"?>
<svg width="14px" height="13px" viewBox="0 0 14 13" version="1.1" xmlns="http://www.w3.org/2000/svg" xmlns:xlink="http://www.w3.org/1999/xlink">
    <!-- Generator: Sketch 43.2 (39069) - http://www.bohemiancoding.com/sketch -->
    <title>sendicon</title>
    <desc>Created with Sketch.</desc>
    <defs></defs>
    <g id="Symbols" stroke="none" stroke-width="1" fill="none" fill-rule="evenodd">
        <g id="design/input" transform="translate(-471.000000, -14.000000)" fill-rule="nonzero" fill="#FFFFFF">
            <g id="input">
                <path d="M484.500444,14.0067628 L471.308173,17.2015508 C471.142925,17.2290921 471.03276,17.3667985 471.005219,17.5595874 C470.977678,17.7248351 471.060302,17.8900827 471.225549,17.9727066 L476.127896,20.7268342 L477.339713,26.2350893 C477.367254,26.400337 477.50496,26.5380434 477.670208,26.5655846 L477.72529,26.5655846 C477.862997,26.5655846 478.000703,26.4829608 478.083327,26.3727957 L484.941105,14.6677535 C485.023728,14.5300471 485.023728,14.3372582 484.913563,14.1995518 C484.83094,14.0343041 484.665692,13.9792216 484.500444,14.0067628 Z M472.547531,17.7523764 L482.737803,15.3012028 L476.458392,19.9281372 L472.547531,17.7523764 Z M477.918079,24.9957319 L476.954135,20.6166691 L483.206004,15.9621934 L477.918079,24.9957319 Z" id="sendicon"></path>
            </g>
        </g>
    </g>
</svg>