<?xml version="1.0" encoding="UTF-8"?>
<svg width="12px" height="12px" viewBox="0 0 12 12" version="1.1" xmlns="http://www.w3.org/2000/svg" xmlns:xlink="http://www.w3.org/1999/xlink">
    <!-- Generator: Sketch 43.2 (39069) - http://www.bohemiancoding.com/sketch -->
    <title>icon-share</title>
    <desc>Created with Sketch.</desc>
    <defs></defs>
    <g id="Symbols" stroke="none" stroke-width="1" fill="none" fill-rule="evenodd">
        <g id="design/button-share" transform="translate(-20.000000, -14.000000)" fill-rule="nonzero" fill="#FFFFFF">
            <g id="button/share">
                <path d="M31.999925,23.6930242 C32.0024772,24.2391056 31.7874988,24.7637311 31.4024841,25.1509973 C31.0174695,25.5382635 30.4941064,25.7562973 29.9480194,25.7569293 C29.4064158,25.758851 28.8864404,25.5445501 28.5034664,25.1615761 C28.1204924,24.7786021 27.9061915,24.2586267 27.9081132,23.7170231 C27.9081132,23.4470355 27.825317,23.3318408 27.5901278,23.2202459 C26.3205862,22.6202735 25.0594442,21.9939023 23.8007021,21.3675311 C23.6231103,21.2787352 23.5115154,21.2727355 23.345923,21.4119291 C22.5211588,22.1065082 21.2968237,22.0331853 20.5608511,21.2451368 C19.8219115,20.461697 19.8119704,19.2410364 20.5380521,18.4456655 C21.2612203,17.6444848 22.4855842,17.5510743 23.3219241,18.2332753 C23.521115,18.3964678 23.6531089,18.3796685 23.8558996,18.2800731 C25.107842,17.6633015 26.3637842,17.0549295 27.6237263,16.454957 C27.8165439,16.3924353 27.9371915,16.2011154 27.9105131,16.000178 C27.9261606,15.2701036 28.3301095,14.6038348 28.9701963,14.2523488 C29.610283,13.9008627 30.3892631,13.9175584 31.0137023,14.2961468 C31.6381415,14.6747351 32.0131727,15.3576995 31.9975252,16.0877739 C31.976341,16.6321512 31.7390397,17.1456303 31.3381572,17.5145322 C30.9372748,17.8834342 30.4058819,18.0773265 29.8616234,18.0532835 C29.4151348,18.0434048 28.9864239,17.8764242 28.6508791,17.5817052 C28.544305,17.4563479 28.3618611,17.4282403 28.2224988,17.5157083 C26.9241585,18.1612786 25.6210184,18.7912496 24.3202782,19.4200207 C24.1846844,19.4848177 24.0622901,19.5400152 24.0994884,19.7308064 C24.1366866,19.9215976 24.020292,20.1279881 24.3106786,20.2647818 C25.6198184,20.8803535 26.9157588,21.523524 28.2104993,22.1690943 C28.3976907,22.26269 28.5044858,22.2386911 28.6652784,22.110297 C29.3276479,21.5835212 30.0632141,21.4971252 30.8335787,21.8475091 C31.5506516,22.1807052 32.0067231,22.9023491 31.999925,23.6930242 Z" id="icon-share"></path>
            </g>
        </g>
    </g>
</svg>