<?xml version="1.0" encoding="UTF-8"?>
<svg width="15px" height="16px" viewBox="0 0 15 16" version="1.1" xmlns="http://www.w3.org/2000/svg" xmlns:xlink="http://www.w3.org/1999/xlink">
    <!-- Generator: Sketch 43.2 (39069) - http://www.bohemiancoding.com/sketch -->
    <title>icon-copy</title>
    <desc>Created with Sketch.</desc>
    <defs></defs>
    <g id="Symbols" stroke="none" stroke-width="1" fill="none" fill-rule="evenodd">
        <g id="design/sharelink" transform="translate(-395.000000, -148.000000)" fill-rule="nonzero" fill="#F6F6F6">
            <g id="sharelink">
                <g id="link" transform="translate(75.000000, 136.000000)">
                    <g id="icon-copy" transform="translate(320.000000, 12.000000)">
                        <path d="M13.1317447,3.24476596 L5.0532766,3.24476596 C4.05497872,3.24476596 3.24306383,4.05685106 3.24306383,5.05514894 L3.24306383,14.1892766 C3.24306383,15.1875745 4.05497872,15.9998298 5.0532766,15.9998298 L13.1319149,15.9998298 C14.1302128,15.9998298 14.9424681,15.1877447 14.9424681,14.1892766 L14.9424681,5.05514894 C14.9422979,4.05685106 14.1302128,3.24476596 13.1317447,3.24476596 Z M14.1805957,14.1891064 C14.1805957,14.7671489 13.7099574,15.237617 13.1319149,15.237617 L5.0532766,15.237617 C4.47523404,15.237617 4.00493617,14.7671489 4.00493617,14.1891064 L4.00493617,5.05514894 C4.00493617,4.47710638 4.47523404,4.0066383 5.0532766,4.0066383 L13.1319149,4.0066383 C13.7099574,4.0066383 14.1805957,4.47693617 14.1805957,5.05514894 L14.1805957,14.1891064 Z" id="Shape"></path>
                        <path d="M1.84714894,11.9938723 C1.26876596,11.9938723 0.79812766,11.5234043 0.79812766,10.9453617 L0.79812766,1.81123404 C0.79812766,1.23285106 1.26876596,0.762212766 1.84714894,0.762212766 L9.92544681,0.762212766 C10.5034894,0.762212766 10.9739574,1.23285106 10.9739574,1.81123404 C10.9739574,2.02161702 11.1446809,2.19217021 11.3548936,2.19217021 C11.5652766,2.19217021 11.7358298,2.02161702 11.7358298,1.81123404 C11.7358298,0.812765957 10.9237447,0.000340425532 9.9252766,0.000340425532 L1.84697872,0.000340425532 C0.848340426,0.000340425532 0.0360851064,0.812765957 0.0360851064,1.81123404 L0.0360851064,10.9453617 C0.0360851064,11.9436596 0.848170213,12.7559149 1.84697872,12.7559149 C2.0573617,12.7559149 2.22791489,12.5851915 2.22791489,12.3749787 C2.22791489,12.164766 2.05753191,11.9938723 1.84714894,11.9938723 Z" id="Shape"></path>
                    </g>
                </g>
            </g>
        </g>
    </g>
</svg>